<svg width="83" height="64" viewBox="0 0 83 64" fill="none" xmlns="http://www.w3.org/2000/svg">
<path d="M70.2285 5.31879C64.9717 2.83944 59.2801 1.03991 53.3513 0.000183945C53.2994 -0.00149803 53.2477 0.00837172 53.1999 0.0290994C53.1521 0.0498271 53.1093 0.0809094 53.0747 0.120153C52.3632 1.43981 51.5332 3.15936 50.9799 4.47901C44.6914 3.51926 38.2963 3.51926 32.0079 4.47901C31.4546 3.11937 30.6245 1.43981 29.8736 0.120153C29.834 0.0401743 29.7155 0.000183945 29.5969 0.000183945C23.6682 1.03991 18.0161 2.83944 12.7198 5.31879C12.6802 5.31879 12.6407 5.35878 12.6012 5.39877C1.85041 21.6745 -1.11395 37.5104 0.348468 53.1863C0.348468 53.2662 0.387992 53.3462 0.467042 53.3862C7.58152 58.6648 14.4193 61.864 21.1781 63.9834C21.2967 64.0234 21.4152 63.9834 21.4548 63.9035C23.0358 61.704 24.4587 59.3846 25.6839 56.9453C25.763 56.7853 25.6839 56.6254 25.5258 56.5854C23.2729 55.7056 21.1386 54.6659 19.0437 53.4662C18.8856 53.3862 18.8856 53.1463 19.0042 53.0263C19.439 52.7064 19.8738 52.3465 20.3085 52.0266C20.3876 51.9466 20.5062 51.9466 20.5852 51.9866C34.1818 58.2649 48.8455 58.2649 62.284 51.9866C62.363 51.9466 62.4816 51.9466 62.5606 52.0266C62.9954 52.3865 63.4302 52.7064 63.865 53.0663C64.0231 53.1863 64.0231 53.4262 63.8254 53.5062C61.7701 54.7458 59.5963 55.7456 57.3434 56.6254C57.1853 56.6653 57.1457 56.8653 57.1853 56.9853C58.4501 59.4246 59.873 61.744 61.4144 63.9434C61.533 63.9834 61.6516 64.0234 61.7701 63.9834C68.5684 61.864 75.4062 58.6648 82.5207 53.3862C82.5998 53.3462 82.6393 53.2662 82.6393 53.1863C84.3784 35.071 79.754 19.3551 70.3866 5.39877C70.347 5.35878 70.3075 5.31879 70.2285 5.31879ZM27.7392 43.6288C23.6682 43.6288 20.269 39.8298 20.269 35.151C20.269 30.4722 23.5891 26.6732 27.7392 26.6732C31.9289 26.6732 35.2489 30.5122 35.2094 35.151C35.2094 39.8298 31.8893 43.6288 27.7392 43.6288ZM55.2881 43.6288C51.217 43.6288 47.8179 39.8298 47.8179 35.151C47.8179 30.4722 51.138 26.6732 55.2881 26.6732C59.4777 26.6732 62.7978 30.5122 62.7583 35.151C62.7583 39.8298 59.4777 43.6288 55.2881 43.6288Z" fill="white"/>
</svg>
