<svg width="78" height="78" viewBox="0 0 78 78" fill="none" xmlns="http://www.w3.org/2000/svg">
<path d="M38.9093 18.9078C33.6056 18.9078 28.5192 21.0147 24.769 24.7649C21.0188 28.5152 18.9119 33.6016 18.9119 38.9052C18.9119 44.2088 21.0188 49.2952 24.769 53.0454C28.5192 56.7957 33.6056 58.9025 38.9093 58.9025C44.2129 58.9025 49.2993 56.7957 53.0495 53.0454C56.7997 49.2952 58.9066 44.2088 58.9066 38.9052C58.9066 33.6016 56.7997 28.5152 53.0495 24.7649C49.2993 21.0147 44.2129 18.9078 38.9093 18.9078ZM38.9093 51.8922C35.4637 51.8922 32.1593 50.5235 29.723 48.0871C27.2866 45.6508 25.9179 42.3464 25.9179 38.9009C25.9179 35.4553 27.2866 32.1509 29.723 29.7146C32.1593 27.2782 35.4637 25.9095 38.9093 25.9095C42.3548 25.9095 45.6592 27.2782 48.0955 29.7146C50.5319 32.1509 51.9006 35.4553 51.9006 38.9009C51.9006 42.3464 50.5319 45.6508 48.0955 48.0871C45.6592 50.5235 42.3548 51.8922 38.9093 51.8922Z" fill="white"/>
<path d="M59.6983 22.8345C62.2731 22.8345 64.3603 20.7473 64.3603 18.1725C64.3603 15.5977 62.2731 13.5105 59.6983 13.5105C57.1235 13.5105 55.0363 15.5977 55.0363 18.1725C55.0363 20.7473 57.1235 22.8345 59.6983 22.8345Z" fill="white"/>
<path d="M75.816 13.4325C74.8149 10.8471 73.2849 8.49923 71.3241 6.53918C69.3633 4.57913 67.0149 3.05007 64.4291 2.0499C61.4033 0.914052 58.2067 0.299878 54.9754 0.233533C50.8107 0.0518958 49.4917 0 38.9308 0C28.3699 0 27.0163 -4.34989e-07 22.8862 0.233533C19.6574 0.296486 16.463 0.910785 13.4411 2.0499C10.8547 3.04891 8.50563 4.57755 6.54469 6.53775C4.58375 8.49795 3.05421 10.8464 2.05422 13.4325C0.918151 16.4581 0.305385 19.655 0.242182 22.8862C0.0562209 27.0466 0 28.3656 0 38.9308C0 49.4917 -3.22214e-08 50.8367 0.242182 54.9754C0.307053 58.2102 0.916833 61.4019 2.05422 64.4335C3.05702 67.0186 4.58804 69.3661 6.54946 71.326C8.51087 73.286 10.8596 74.8152 13.4454 75.816C16.4616 76.9975 19.6573 77.6557 22.8949 77.7621C27.0595 77.9438 28.3786 78 38.9395 78C49.5003 78 50.854 78 54.984 77.7621C58.215 77.6964 61.4115 77.0837 64.4378 75.9501C67.0229 74.9476 69.3706 73.4172 71.3312 71.4566C73.2918 69.4961 74.8222 67.1483 75.8247 64.5632C76.9621 61.5359 77.5719 58.3443 77.6367 55.1095C77.8227 50.9491 77.8789 49.6301 77.8789 39.0649C77.8789 28.4997 77.8789 27.159 77.6367 23.0203C77.5864 19.7434 76.9704 16.4997 75.816 13.4325ZM70.5486 54.6554C70.5207 57.1477 70.0658 59.6168 69.2036 61.9554C68.5541 63.6372 67.5599 65.1643 66.2847 66.4387C65.0096 67.7131 63.4818 68.7065 61.7997 69.355C59.487 70.2132 57.0441 70.6681 54.5775 70.6999C50.4691 70.8902 49.3101 70.9378 38.7751 70.9378C28.2315 70.9378 27.1547 70.9378 22.9684 70.6999C20.503 70.6698 18.0613 70.2148 15.7505 69.355C14.0625 68.7105 12.5286 67.7189 11.248 66.4443C9.96744 65.1696 8.96868 63.6404 8.31637 61.9554C7.46633 59.6419 7.01166 57.2019 6.97139 54.7375C6.78543 50.6291 6.74218 49.4701 6.74218 38.9351C6.74218 28.3959 6.74218 27.319 6.97139 23.1284C6.99934 20.6375 7.45426 18.1698 8.31637 15.8327C9.6354 12.4205 12.3383 9.73486 15.7505 8.42881C18.0624 7.57313 20.5034 7.11827 22.9684 7.08383C27.0812 6.89787 28.2359 6.84597 38.7751 6.84597C49.3144 6.84597 50.3955 6.84597 54.5775 7.08383C57.0444 7.11351 59.4876 7.5685 61.7997 8.42881C63.4817 9.07869 65.0093 10.0731 66.2843 11.3481C67.5593 12.6231 68.5537 14.1507 69.2036 15.8327C70.0536 18.1462 70.5083 20.5862 70.5486 23.0506C70.7345 27.1633 70.7821 28.318 70.7821 38.8573C70.7821 49.3922 70.7821 50.5253 70.5961 54.6597H70.5486V54.6554Z" fill="white"/>
</svg>
