<svg width="81" height="81" viewBox="0 0 81 81" fill="none" xmlns="http://www.w3.org/2000/svg">
<path id="Vector" d="M40.5 0C18.144 0 0 18.144 0 40.5C0 62.856 18.144 81 40.5 81C62.856 81 81 62.856 81 40.5C81 18.144 62.856 0 40.5 0ZM59.292 27.54C58.6845 33.939 56.052 49.491 54.7155 56.6595C54.1485 59.697 53.0145 60.7095 51.9615 60.831C49.6125 61.0335 47.8305 59.292 45.5625 57.7935C41.9985 55.4445 39.9735 53.9865 36.531 51.7185C32.5215 49.086 35.1135 47.628 37.422 45.279C38.0295 44.6715 48.3975 35.235 48.6 34.3845C48.6281 34.2557 48.6244 34.1219 48.5891 33.9949C48.5538 33.8679 48.488 33.7514 48.3975 33.6555C48.1545 33.453 47.8305 33.534 47.547 33.5745C47.1825 33.6555 41.5125 37.422 30.456 44.874C28.836 45.9675 27.378 46.5345 26.082 46.494C24.624 46.4535 21.87 45.684 19.8045 44.9955C17.253 44.1855 15.2685 43.74 15.4305 42.3225C15.5115 41.5935 16.524 40.8645 18.4275 40.095C30.2535 34.9515 38.1105 31.5495 42.039 29.9295C53.298 25.2315 55.6065 24.4215 57.1455 24.4215C57.4695 24.4215 58.239 24.5025 58.725 24.9075C59.13 25.2315 59.2515 25.677 59.292 26.001C59.2515 26.244 59.3325 26.973 59.292 27.54Z" fill="white"/>
</svg>
