<svg width="18" height="16" viewBox="0 0 18 16" fill="none" xmlns="http://www.w3.org/2000/svg">
<path id="Vector" d="M9 7.27397C13.9711 7.27397 18 5.64465 18 3.63698C18 1.62931 13.9711 0 9 0C4.02891 0 0 1.62931 0 3.63698C0 5.64465 4.02891 7.27397 9 7.27397ZM9 13.0891C5.56523 13.0891 2.52773 12.288 0.611719 11.0507C0.221484 11.4597 0 11.8994 0 12.363C0 14.3707 4.02891 16 9 16C13.9711 16 18 14.3707 18 12.363C18 11.8994 17.7785 11.4597 17.3883 11.0541C15.4723 12.288 12.4348 13.0891 9 13.0891ZM9 8.72603C5.56523 8.72603 2.52773 7.92501 0.611719 6.68769C0.221484 7.09672 0 7.53643 0 8C0 10.0077 4.02891 11.637 9 11.637C13.9711 11.637 18 10.0077 18 8C18 7.53643 17.7785 7.09672 17.3883 6.69109C15.4723 7.92501 12.4348 8.72603 9 8.72603Z" fill="white"/>
</svg>
