<svg width="20" height="18" viewBox="0 0 20 18" fill="none" xmlns="http://www.w3.org/2000/svg">
<path id="Vector" d="M18 0H2C1.46957 0 0.960859 0.210714 0.585786 0.585786C0.210714 0.960859 0 1.46957 0 2V6C0 6.53043 0.210714 7.03914 0.585786 7.41421C0.960859 7.78929 1.46957 8 2 8H18C18.5304 8 19.0391 7.78929 19.4142 7.41421C19.7893 7.03914 20 6.53043 20 6V2C20 1.46957 19.7893 0.960859 19.4142 0.585786C19.0391 0.210714 18.5304 0 18 0ZM13 5H11V3H13V5ZM17 5H15V3H17V5ZM18 10H2C1.46957 10 0.960859 10.2107 0.585786 10.5858C0.210714 10.9609 0 11.4696 0 12V16C0 16.5304 0.210714 17.0391 0.585786 17.4142C0.960859 17.7893 1.46957 18 2 18H18C18.5304 18 19.0391 17.7893 19.4142 17.4142C19.7893 17.0391 20 16.5304 20 16V12C20 11.4696 19.7893 10.9609 19.4142 10.5858C19.0391 10.2107 18.5304 10 18 10ZM13 15H11V13H13V15ZM17 15H15V13H17V15Z" fill="white"/>
</svg>
