<svg width="18" height="15" viewBox="0 0 18 15" fill="none" xmlns="http://www.w3.org/2000/svg">
<path id="Vector" d="M18 4.32V11.9531C18 12.7314 17.7142 13.4802 17.2011 14.0458C16.688 14.6115 15.9865 14.9513 15.2406 14.9953L15.075 15H2.925C2.17788 15.0001 1.45905 14.7023 0.915992 14.1678C0.37293 13.6333 0.0467988 12.9026 0.0045001 12.1256L0 11.9531V4.32L8.6868 9.06C8.78344 9.11273 8.89091 9.14027 9 9.14027C9.10909 9.14027 9.21656 9.11273 9.3132 9.06L18 4.32ZM2.925 2.21298e-08H15.075C15.8 -9.09513e-05 16.4992 0.280308 17.037 0.786813C17.5748 1.29332 17.9129 1.98983 17.9856 2.74125L9 7.64438L0.0144 2.74125C0.084171 2.01967 0.398745 1.34767 0.901575 0.846059C1.4044 0.344446 2.06251 0.0461128 2.7576 0.00468763L2.925 2.21298e-08Z" fill="white"/>
</svg>
