<svg width="14" height="15" viewBox="0 0 14 15" fill="none" xmlns="http://www.w3.org/2000/svg">
<path d="M0.786289 1.17229C0.65808 1.42729 0.595038 1.74321 0.468955 2.37362L0.0453718 4.49154C-0.0146602 4.78031 -0.0151252 5.0783 0.0440054 5.36725C0.103136 5.65621 0.220618 5.93005 0.389259 6.17203C0.5579 6.414 0.774152 6.61901 1.02478 6.77451C1.2754 6.93001 1.55512 7.03272 1.84682 7.07636C2.13852 7.11999 2.43605 7.10364 2.72121 7.02829C3.00637 6.95294 3.27315 6.82019 3.50522 6.63816C3.73729 6.45613 3.92977 6.22865 4.07087 5.96965C4.21197 5.71065 4.29873 5.42557 4.32583 5.13187L4.37541 4.64313C4.34801 4.95424 4.38588 5.26765 4.48659 5.56329C4.5873 5.85893 4.74863 6.13028 4.96026 6.35998C5.17189 6.58967 5.42915 6.77264 5.71557 6.89717C6.00199 7.02171 6.31126 7.08506 6.62357 7.08318C6.93589 7.0813 7.24437 7.01422 7.52927 6.88624C7.81417 6.75827 8.0692 6.57221 8.27805 6.33998C8.48689 6.10776 8.64494 5.83448 8.74208 5.53765C8.83922 5.24082 8.87331 4.92697 8.84216 4.61621L8.89458 5.13187C8.92168 5.42557 9.00844 5.71065 9.14954 5.96965C9.29064 6.22865 9.48312 6.45613 9.71519 6.63816C9.94726 6.82019 10.214 6.95294 10.4992 7.02829C10.7844 7.10364 11.0819 7.11999 11.3736 7.07636C11.6653 7.03272 11.945 6.93001 12.1956 6.77451C12.4463 6.61901 12.6625 6.414 12.8312 6.17203C12.9998 5.93005 13.1173 5.65621 13.1764 5.36725C13.2355 5.0783 13.2351 4.78031 13.175 4.49154L12.7515 2.37362C12.6254 1.74321 12.5623 1.428 12.4341 1.17229C12.3005 0.905985 12.1124 0.670747 11.882 0.481844C11.6517 0.292942 11.3841 0.154598 11.0968 0.0757917C10.8205 7.91624e-08 10.499 0 9.85579 0H3.36462C2.72146 0 2.39987 7.91624e-08 2.12362 0.0757917C1.8363 0.154598 1.56876 0.292942 1.33837 0.481844C1.10797 0.670747 0.919877 0.905985 0.786289 1.17229ZM11.05 8.14583C11.6037 8.14735 12.1484 8.00558 12.631 7.73429V8.5C12.631 11.1711 12.631 12.507 11.8009 13.3365C11.1329 14.0052 10.1377 14.1348 8.38104 14.1603V11.6875C8.38104 11.0252 8.38104 10.6944 8.23866 10.4479C8.14541 10.2864 8.0113 10.1523 7.84979 10.059C7.60329 9.91667 7.2725 9.91667 6.61021 9.91667C5.94791 9.91667 5.61712 9.91667 5.37062 10.059C5.20911 10.1523 5.075 10.2864 4.98175 10.4479C4.83937 10.6944 4.83937 11.0252 4.83937 11.6875V14.1603C3.08271 14.1348 2.0875 14.0045 1.41954 13.3365C0.589372 12.507 0.589372 11.1711 0.589372 8.5V7.73429C1.07204 8.00558 1.61669 8.14735 2.17037 8.14583C2.98896 8.14642 3.77709 7.83542 4.37471 7.276C4.98379 7.83705 5.7821 8.14767 6.61021 8.14583C7.43805 8.14743 8.23606 7.83682 8.845 7.276C9.44315 7.83592 10.2321 8.14696 11.0515 8.14583H11.05Z" fill="#737373"/>
</svg>
