<svg width="17" height="18" viewBox="0 0 17 18" fill="none" xmlns="http://www.w3.org/2000/svg">
<path fill-rule="evenodd" clip-rule="evenodd" d="M6.33435 0.367187C5.66663 0.931517 5.66663 1.96387 5.66663 4.02768V13.9714C5.66663 16.0352 5.66663 17.0676 6.33435 17.6319C7.00207 18.1962 8.02301 18.027 10.0649 17.6877L12.2655 17.3223C14.5265 16.9461 15.657 16.758 16.3285 15.9677C17 15.1766 17 14.0335 17 11.7465V6.2526C17 3.96648 17 2.82342 16.3294 2.03228C15.657 1.24203 14.5255 1.05392 12.2645 0.678604L10.0658 0.312284C8.02396 -0.0270342 7.00302 -0.196243 6.33529 0.368087L6.33435 0.367187ZM8.49996 7.35156C8.89096 7.35156 9.20829 7.66748 9.20829 8.0572V9.9419C9.20829 10.3316 8.89096 10.6475 8.49996 10.6475C8.10896 10.6475 7.79163 10.3316 7.79163 9.9419V8.0572C7.79163 7.66748 8.10896 7.35156 8.49996 7.35156Z" fill="white"/>
<path d="M4.29439 2.24927C2.35072 2.25197 1.33733 2.29247 0.691333 2.9081C1.12587e-07 3.56694 0 4.6272 0 6.74951V11.2498C0 13.3712 1.12587e-07 14.4314 0.691333 15.0912C1.33733 15.7059 2.35072 15.7473 4.29439 15.75C4.25 15.1884 4.25 14.5403 4.25 13.8392V4.16007C4.25 3.45803 4.25 2.81 4.29439 2.24927Z" fill="white"/>
</svg>
