<svg width="17" height="17" viewBox="0 0 17 17" fill="none" xmlns="http://www.w3.org/2000/svg">
<path fill-rule="evenodd" clip-rule="evenodd" d="M9.11139 0.248871C8.952 0.089519 8.73583 0 8.51045 0C8.28506 0 8.06889 0.089519 7.9095 0.248871L1.9595 6.19893L0.259495 7.89895C0.178311 7.97736 0.113556 8.07116 0.0690088 8.17486C0.0244612 8.27857 0.00101284 8.3901 3.20932e-05 8.50297C-0.000948651 8.61583 0.0205578 8.72776 0.0632966 8.83222C0.106035 8.93669 0.16915 9.03159 0.248959 9.1114C0.328768 9.19121 0.423672 9.25433 0.528134 9.29707C0.632596 9.33981 0.744524 9.36131 0.857386 9.36033C0.970249 9.35935 1.08179 9.3359 1.18549 9.29135C1.28919 9.24681 1.38299 9.18205 1.4614 9.10087L1.71044 8.85181V14.45C1.71044 15.1263 1.9791 15.7749 2.45732 16.2531C2.93554 16.7313 3.58414 17 4.26044 17H12.7604C13.4367 17 14.0854 16.7313 14.5636 16.2531C15.0418 15.7749 15.3104 15.1263 15.3104 14.45V8.85181L15.5595 9.10087C15.7198 9.2557 15.9345 9.34138 16.1574 9.33944C16.3803 9.3375 16.5934 9.24811 16.751 9.09051C16.9086 8.93291 16.998 8.71972 17 8.49685C17.0019 8.27398 16.9162 8.05927 16.7614 7.89895L9.11139 0.248871Z" fill="#737373"/>
</svg>
