<svg width="17" height="17" viewBox="0 0 17 17" fill="none" xmlns="http://www.w3.org/2000/svg">
<path d="M10.7499 1.76902C10.7727 1.86314 10.8174 1.95055 10.8803 2.02414C10.9433 2.09773 11.0227 2.15542 11.1122 2.19253C11.2016 2.22963 11.2986 2.2451 11.3951 2.23768C11.4917 2.23026 11.5851 2.20015 11.6679 2.14981C13.741 0.88759 16.1133 3.25903 14.851 5.33213C14.8007 5.4148 14.7706 5.50818 14.7631 5.60469C14.7556 5.7012 14.771 5.79811 14.808 5.88755C14.845 5.97698 14.9026 6.05643 14.9761 6.11943C15.0496 6.18242 15.1369 6.2272 15.231 6.25011C17.5897 6.82214 17.5897 10.177 15.231 10.7499C15.1369 10.7727 15.0495 10.8174 14.9759 10.8803C14.9023 10.9433 14.8446 11.0227 14.8075 11.1122C14.7704 11.2016 14.7549 11.2986 14.7623 11.3951C14.7697 11.4917 14.7998 11.5851 14.8502 11.6679C16.1124 13.741 13.741 16.1133 11.6679 14.851C11.5852 14.8007 11.4918 14.7706 11.3953 14.7631C11.2988 14.7556 11.2019 14.771 11.1125 14.808C11.023 14.845 10.9436 14.9026 10.8806 14.9761C10.8176 15.0496 10.7728 15.1369 10.7499 15.231C10.1779 17.5897 6.82299 17.5897 6.25011 15.231C6.2273 15.1369 6.18261 15.0495 6.11965 14.9759C6.0567 14.9023 5.97727 14.8446 5.88782 14.8075C5.79836 14.7704 5.70142 14.7549 5.60486 14.7623C5.5083 14.7697 5.41486 14.7998 5.33213 14.8502C3.25903 16.1124 0.88674 13.741 2.14896 11.6679C2.19931 11.5852 2.22944 11.4918 2.23691 11.3953C2.24439 11.2988 2.22899 11.2019 2.19197 11.1125C2.15495 11.023 2.09736 10.9436 2.02387 10.8806C1.95038 10.8176 1.86306 10.7728 1.76902 10.7499C-0.589673 10.1779 -0.589673 6.82299 1.76902 6.25011C1.86314 6.2273 1.95055 6.18261 2.02414 6.11965C2.09773 6.0567 2.15542 5.97727 2.19253 5.88782C2.22963 5.79836 2.2451 5.70142 2.23768 5.60486C2.23026 5.5083 2.20015 5.41486 2.14981 5.33213C0.88759 3.25903 3.25903 0.88674 5.33213 2.14896C5.41472 2.19968 5.50815 2.23013 5.60477 2.2378C5.70138 2.24546 5.79845 2.23014 5.888 2.19307C5.97756 2.156 6.05706 2.09825 6.12 2.02455C6.18294 1.95084 6.22752 1.86327 6.25011 1.76902C6.82214 -0.589673 10.177 -0.589673 10.7499 1.76902ZM8.5 5.95006C7.82371 5.95006 7.17513 6.21872 6.69692 6.69692C6.21872 7.17513 5.95006 7.82371 5.95006 8.5C5.95006 9.17628 6.21872 9.82487 6.69692 10.3031C7.17513 10.7813 7.82371 11.0499 8.5 11.0499C9.17628 11.0499 9.82487 10.7813 10.3031 10.3031C10.7813 9.82487 11.0499 9.17628 11.0499 8.5C11.0499 7.82371 10.7813 7.17513 10.3031 6.69692C9.82487 6.21872 9.17628 5.95006 8.5 5.95006Z" fill="#737373"/>
</svg>
