<svg width="111" height="54" viewBox="0 0 111 54" fill="none" xmlns="http://www.w3.org/2000/svg">
<path d="M30.3245 24.4522C30.3245 23.0235 28.7253 22.178 27.5448 22.9825L24.869 24.806C24.383 25.1372 24.0921 25.6874 24.0921 26.2757V29.0549C24.0921 30.4798 25.6838 31.3262 26.865 30.5293L29.5407 28.7242C30.0308 28.3936 30.3245 27.841 30.3245 27.2498V24.4522Z" fill="#318FFF"/>
<path d="M30.3245 16.9153C30.3245 15.4858 28.7236 14.6404 27.5432 15.4467L24.8675 17.2742C24.3823 17.6057 24.0921 18.1553 24.0921 18.7429V21.5352C24.0921 22.9609 25.6855 23.8071 26.8665 23.0085L29.5422 21.1993C30.0314 20.8685 30.3245 20.3165 30.3245 19.7259V16.9153Z" fill="#318FFF"/>
<path d="M30.3245 9.27159C30.3245 7.84201 28.7236 6.99664 27.5432 7.80288L24.8675 9.63043C24.3823 9.96188 24.0921 10.5115 24.0921 11.0991V13.8914C24.0921 15.3171 25.6855 16.1633 26.8665 15.3648L29.5422 13.5555C30.0314 13.2248 30.3245 12.6727 30.3245 12.0821V9.27159Z" fill="#318FFF"/>
<path d="M30.3245 1.78158C30.3245 0.352035 28.7236 -0.493343 27.5432 0.312879L24.8675 2.14048C24.3823 2.47187 24.0921 3.02156 24.0921 3.60917V6.40135C24.0921 7.82709 25.6855 8.67331 26.8665 7.87475L29.5422 6.06549C30.0314 5.73475 30.3245 5.1827 30.3245 4.59213V1.78158Z" fill="#318FFF"/>
<path d="M17.3211 32.0191C17.3211 30.5905 18.9203 29.7449 20.1009 30.5493L22.7766 32.3728C23.2626 32.7041 23.5535 33.2543 23.5535 33.8426V36.6218C23.5535 38.0467 21.9618 38.8931 20.7807 38.0962L18.1049 36.2911C17.6149 35.9605 17.3211 35.4079 17.3211 34.8167V32.0191Z" fill="#318FFF"/>
<path d="M17.3211 24.5035C17.3211 23.0748 18.9203 22.2293 20.1009 23.0337L22.7766 24.8572C23.2626 25.1884 23.5535 25.7387 23.5535 26.3269V29.1062C23.5535 30.5311 21.9618 31.3774 20.7807 30.5806L18.1049 28.7755C17.6149 28.4449 17.3211 27.8922 17.3211 27.3011V24.5035Z" fill="#318FFF"/>
<path d="M17.3211 16.9667C17.3211 15.5371 18.922 14.6917 20.1024 15.498L22.7781 17.3255C23.2633 17.6569 23.5535 18.2066 23.5535 18.7942V21.5864C23.5535 23.0122 21.9602 23.8583 20.7791 23.0598L18.1034 21.2506C17.6142 20.9198 17.3211 20.3678 17.3211 19.7772V16.9667Z" fill="#318FFF"/>
<path d="M17.3211 9.32286C17.3211 7.89328 18.922 7.04791 20.1024 7.85415L22.7781 9.68177C23.2633 10.0131 23.5535 10.5629 23.5535 11.1504V13.9426C23.5535 15.3684 21.9602 16.2146 20.7791 15.416L18.1034 13.6068C17.6142 13.276 17.3211 12.724 17.3211 12.1334V9.32286Z" fill="#318FFF"/>
<path d="M17.3211 1.78158C17.3211 0.352035 18.922 -0.493343 20.1024 0.312879L22.7781 2.14048C23.2633 2.47187 23.5535 3.02156 23.5535 3.60917V6.40135C23.5535 7.82709 21.9602 8.67331 20.7791 7.87475L18.1034 6.06549C17.6142 5.73475 17.3211 5.1827 17.3211 4.59213V1.78158Z" fill="#318FFF"/>
<path d="M46.8487 39.0773V18.1454C46.8487 17.2708 46.4465 16.4447 45.758 15.9053L37.947 9.78607C36.0795 8.32298 33.347 9.65368 33.347 12.0262V34.3526C33.347 35.2879 32.8875 36.1635 32.1178 36.6947L27.8683 39.6275C27.0986 40.1588 26.639 41.0344 26.639 41.9697V48.2724V50.2794C26.639 52.6422 29.3518 53.9757 31.2224 52.5325L45.7414 41.3303C46.4397 40.7916 46.8487 39.9593 46.8487 39.0773Z" fill="#318FFF"/>
<path d="M0 39.0773V18.1454C0 17.2708 0.402223 16.4447 1.09073 15.9053L8.90169 9.78607C10.7692 8.32298 13.5017 9.65368 13.5017 12.0262V34.3526C13.5017 35.2879 13.9612 36.1635 14.731 36.6947L18.9804 39.6275C19.7502 40.1588 20.2097 41.0344 20.2097 41.9697V50.2794C20.2097 52.6422 17.4969 53.9757 15.6263 52.5325L1.10734 41.3303C0.409012 40.7916 0 39.9593 0 39.0773Z" fill="#318FFF"/>
<path d="M30.3245 31.9679C30.3245 30.5392 28.7253 29.6936 27.5448 30.4981L24.869 32.3216C24.383 32.6528 24.0921 33.203 24.0921 33.7913V36.5705C24.0921 37.9954 25.6838 38.8418 26.865 38.045L29.5407 36.2398C30.0308 35.9092 30.3245 35.3566 30.3245 34.7654V31.9679Z" fill="#318FFF"/>
<path d="M60.0029 27V16.6025H62.1104V20.8174H62.1484L65.7666 16.6025H68.4072L64.332 21.1729L68.4326 27H65.9189L63.0117 22.6582L62.1104 23.6738V27H60.0029ZM68.3438 21.8076C68.3438 20.1742 68.7585 18.8623 69.5879 17.8721C70.4258 16.8734 71.526 16.374 72.8887 16.374C74.2513 16.374 75.3473 16.8734 76.1768 17.8721C77.0146 18.8623 77.4336 20.1742 77.4336 21.8076C77.4336 23.4411 77.0146 24.7529 76.1768 25.7432C75.3473 26.7334 74.2513 27.2285 72.8887 27.2285C71.5176 27.2285 70.4173 26.7334 69.5879 25.7432C68.7585 24.7529 68.3438 23.4411 68.3438 21.8076ZM70.5273 21.8076C70.5273 22.9333 70.7347 23.8177 71.1494 24.4609C71.5641 25.1042 72.1439 25.4258 72.8887 25.4258C73.6335 25.4258 74.2132 25.1042 74.6279 24.4609C75.0426 23.8092 75.25 22.9248 75.25 21.8076C75.25 20.6989 75.0426 19.8187 74.6279 19.167C74.2132 18.5153 73.6335 18.1895 72.8887 18.1895C72.1439 18.1895 71.5641 18.5153 71.1494 19.167C70.7347 19.8187 70.5273 20.6989 70.5273 21.8076ZM78.8936 27V16.6025H81.001V25.1973H85.5713V27H78.8936ZM85.8379 21.8076C85.8379 20.1742 86.2526 18.8623 87.082 17.8721C87.9199 16.8734 89.0202 16.374 90.3828 16.374C91.7454 16.374 92.8415 16.8734 93.6709 17.8721C94.5088 18.8623 94.9277 20.1742 94.9277 21.8076C94.9277 23.4411 94.5088 24.7529 93.6709 25.7432C92.8415 26.7334 91.7454 27.2285 90.3828 27.2285C89.0117 27.2285 87.9115 26.7334 87.082 25.7432C86.2526 24.7529 85.8379 23.4411 85.8379 21.8076ZM88.0215 21.8076C88.0215 22.9333 88.2288 23.8177 88.6436 24.4609C89.0583 25.1042 89.638 25.4258 90.3828 25.4258C91.1276 25.4258 91.7074 25.1042 92.1221 24.4609C92.5368 23.8092 92.7441 22.9248 92.7441 21.8076C92.7441 20.6989 92.5368 19.8187 92.1221 19.167C91.7074 18.5153 91.1276 18.1895 90.3828 18.1895C89.638 18.1895 89.0583 18.5153 88.6436 19.167C88.2288 19.8187 88.0215 20.6989 88.0215 21.8076ZM95.6133 24.626L97.4414 24.0039C97.6615 24.4102 97.9958 24.7487 98.4443 25.0195C98.9014 25.2904 99.3753 25.4258 99.8662 25.4258C100.349 25.4258 100.734 25.3115 101.021 25.083C101.318 24.846 101.466 24.5498 101.466 24.1943C101.466 23.7881 101.301 23.4665 100.971 23.2295C100.641 22.984 100.154 22.7513 99.5107 22.5312C98.512 22.2012 97.8434 21.9473 97.5049 21.7695C96.4977 21.2194 95.9941 20.4069 95.9941 19.332C95.9941 18.4518 96.3454 17.7409 97.0479 17.1992C97.7503 16.6491 98.6517 16.374 99.752 16.374C100.7 16.374 101.5 16.5983 102.151 17.0469C102.812 17.487 103.298 18.0583 103.611 18.7607L101.834 19.3447C101.275 18.5745 100.577 18.1895 99.7393 18.1895C99.2568 18.1895 98.876 18.2952 98.5967 18.5068C98.3174 18.71 98.1777 18.9808 98.1777 19.3193C98.1777 19.4632 98.1989 19.5944 98.2412 19.7129C98.2835 19.8314 98.3639 19.9414 98.4824 20.043C98.6094 20.1445 98.7152 20.2292 98.7998 20.2969C98.8929 20.3646 99.0452 20.4408 99.2568 20.5254C99.4769 20.61 99.6377 20.6735 99.7393 20.7158C99.8493 20.7497 100.044 20.8089 100.323 20.8936C100.611 20.9782 100.801 21.0374 100.895 21.0713C101.275 21.1982 101.614 21.3379 101.91 21.4902C102.215 21.6426 102.507 21.8372 102.786 22.0742C103.065 22.3027 103.281 22.5905 103.434 22.9375C103.586 23.2845 103.662 23.6738 103.662 24.1055C103.662 25.0957 103.294 25.8659 102.558 26.416C101.83 26.9577 100.916 27.2285 99.8154 27.2285C98.859 27.2285 98.0042 26.9958 97.251 26.5303C96.4977 26.0648 95.9518 25.43 95.6133 24.626ZM61.1533 34.0273H62.4102C63.1602 34.0273 63.5352 33.6875 63.5352 33.0078C63.5352 32.7148 63.4355 32.4834 63.2363 32.3135C63.0371 32.1436 62.7588 32.0586 62.4014 32.0586H61.1533V34.0273ZM59.6943 38V30.8018H62.6738C63.4355 30.8018 64.0215 30.998 64.4316 31.3906C64.8418 31.7832 65.0469 32.2812 65.0469 32.8848C65.0469 33.377 64.9473 33.7754 64.748 34.0801C64.5488 34.3789 64.3145 34.5898 64.0449 34.7129C64.25 34.877 64.3936 35.0381 64.4756 35.1963C64.5635 35.3545 64.6367 35.6123 64.6953 35.9697C64.8242 36.626 65.0996 37.3027 65.5215 38H63.8867C63.5527 37.4551 63.3125 36.8135 63.166 36.0752C63.1074 35.7939 63.0254 35.5889 62.9199 35.46C62.8145 35.3311 62.6504 35.2666 62.4277 35.2666H61.1533V38H59.6943ZM65.873 34.4053C65.873 33.2744 66.1602 32.3662 66.7344 31.6807C67.3145 30.9893 68.0762 30.6436 69.0195 30.6436C69.9629 30.6436 70.7217 30.9893 71.2959 31.6807C71.876 32.3662 72.166 33.2744 72.166 34.4053C72.166 35.5361 71.876 36.4443 71.2959 37.1299C70.7217 37.8154 69.9629 38.1582 69.0195 38.1582C68.0703 38.1582 67.3086 37.8154 66.7344 37.1299C66.1602 36.4443 65.873 35.5361 65.873 34.4053ZM67.3848 34.4053C67.3848 35.1846 67.5283 35.7969 67.8154 36.2422C68.1025 36.6875 68.5039 36.9102 69.0195 36.9102C69.5352 36.9102 69.9365 36.6875 70.2236 36.2422C70.5107 35.791 70.6543 35.1787 70.6543 34.4053C70.6543 33.6377 70.5107 33.0283 70.2236 32.5771C69.9365 32.126 69.5352 31.9004 69.0195 31.9004C68.5039 31.9004 68.1025 32.126 67.8154 32.5771C67.5283 33.0283 67.3848 33.6377 67.3848 34.4053ZM73.1768 38V30.8018H74.6357V36.752H77.7998V38H73.1768ZM78.5908 38V30.8018H83.4512V32.0586H80.0498V33.667H83.1084V34.8975H80.0498V36.752H83.5479V38H78.5908ZM84.4707 38V30.8018H87.3447C88.1299 30.8018 88.7393 31.0098 89.1729 31.4258C89.6064 31.8359 89.8232 32.3809 89.8232 33.0605C89.8232 33.7578 89.5977 34.3115 89.1465 34.7217C88.7012 35.126 88.1123 35.3281 87.3799 35.3281H85.9297V38H84.4707ZM85.9297 34.0713H87.1777C87.5352 34.0713 87.8135 33.9834 88.0127 33.8076C88.2119 33.6318 88.3115 33.3828 88.3115 33.0605C88.3115 32.3926 87.9365 32.0586 87.1865 32.0586H85.9297V34.0713ZM90.7812 38V30.8018H92.2402V36.752H95.4043V38H90.7812ZM98.0762 35.2139H99.8867L99.4297 33.6934C99.248 33.084 99.1074 32.5947 99.0078 32.2256H98.9551C98.8203 32.7354 98.6826 33.2246 98.542 33.6934L98.0762 35.2139ZM95.668 38L98.208 30.8018H99.7637L102.304 38H100.766L100.256 36.3916H97.7158L97.2061 38H95.668ZM101.592 30.8018H103.253L104.272 32.876C104.354 33.04 104.519 33.3975 104.765 33.9482H104.809C104.979 33.5967 105.148 33.2393 105.318 32.876L106.329 30.8018H107.999L105.521 35.0996V38H104.062V35.0996L101.592 30.8018Z" fill="#318FFF"/>
</svg>
